<svg width="100.491mm" height="49.1681mm" version="1.1" viewBox="0 0 100.491 49.1681" xmlns="http://www.w3.org/2000/svg"><defs><marker id="RoundedArrow" overflow="visible" markerHeight="1" markerWidth="1" orient="auto-start-reverse" preserveAspectRatio="xMidYMid" viewBox="0 0 1 1"><path transform="scale(.7)" d="m-0.211146-4.10557 6.42229 3.21115a1 1 90 0 1 0 1.78885l-6.42229 3.21115a1.23607 1.23607 31.7175 0 1-1.78885-1.10557v-6a1.23607 1.23607 148.283 0 1 1.78885-1.10557z" fill="context-stroke" fill-rule="evenodd"/></marker></defs><g transform="translate(-31.8701 -30.15)"><g stroke="#1415c0" stroke-linejoin="round"><path d="m33.9821 64.1932q-0.3048 0-0.5334-0.2286t-0.2286-0.5334q0-0.1905 0.0381-0.4191l9.4488-24.6507q0.1524-0.381 0.4191-0.6096t0.8001-0.2286h2.5908q0.4953 0 0.762 0.2286 0.3048 0.2286 0.4572 0.6096l9.4107 24.6507q0.0762 0.2286 0.0762 0.4191 0 0.3048-0.2286 0.5334t-0.5334 0.2286h-1.9431q-0.4572 0-0.6858-0.2286-0.1905-0.2286-0.2667-0.4191l-2.0955-5.4102h-12.4968l-2.0955 5.4102q-0.0381 0.1905-0.2667 0.4191t-0.6858 0.2286zm6.096-9.3345h10.287l-5.1435-13.5255z" fill="#95beff" stroke-linecap="round" stroke-width="2.7" style="paint-order:markers stroke fill" aria-label="A"/><path d="m131.011 49.1591a17.6591 17.6591 0 0 1-17.6591 17.6591 17.6591 17.6591 0 0 1-17.6591-17.6591 17.6591 17.6591 0 0 1 17.6591-17.6591 17.6591 17.6591 0 0 1 17.6591 17.6591z" fill="#95beff" stroke-linecap="round" stroke-width="2.69999" style="paint-order:markers stroke fill"/><path d="m54.7826 50.1136h23.7979" fill="#b3b3b3" marker-end="url(#RoundedArrow)" stroke-linecap="square" stroke-width="3.6" style="paint-order:markers stroke fill"/></g><g stroke-linecap="square" stroke-linejoin="round" stroke-width="3.6" style="paint-order:markers stroke fill" aria-label="401
PI
72"><path d="m109.813 42.2588q-0.0847 0-0.14393-0.0508-0.0508-0.05927-0.0508-0.143933v-1.2192h-2.7432q-0.0847 0-0.14393-0.0508-0.0508-0.05927-0.0508-0.143933v-0.338667q0-0.03387 0.0169-0.1016 0.0254-0.0762 0.0762-0.1524l2.54-3.5814q0.1016-0.143933 0.31327-0.143933h0.6096q0.0847 0 0.13547 0.05927 0.0593 0.0508 0.0593 0.135466v3.5814h0.762q0.0931 0 0.14393 0.05927 0.0593 0.0508 0.0593 0.135467v0.347134q0 0.08467-0.0593 0.143933-0.0508 0.0508-0.13547 0.0508h-0.77046v1.2192q0 0.08467-0.0593 0.143933-0.0508 0.0508-0.13547 0.0508zm-2.22674-2.1336h2.04047v-2.90407zm6.77334 2.21827q-0.5842 0-0.9906-0.1778-0.39793-0.186267-0.65193-0.508001-0.254-0.321733-0.37253-0.7366-0.11007-0.414867-0.12701-0.880534-8e-3 -0.2286-0.0169-0.4826 0-0.254 0-0.508 8e-3 -0.262467 0.0169-0.499534 8e-3 -0.465666 0.12701-0.880533 0.127-0.423334 0.37253-0.736601 0.254-0.321733 0.6604-0.499533 0.4064-0.186267 0.98213-0.186267 0.5842 0 0.98214 0.186267 0.4064 0.1778 0.6604 0.499533 0.254 0.313267 0.37253 0.736601 0.127 0.414867 0.13547 0.880533 8e-3 0.237067 8e-3 0.499534 8e-3 0.254 0 0.508 0 0.254-8e-3 0.4826-8e-3 0.465667-0.13547 0.880534-0.11853 0.414867-0.37253 0.7366-0.24554 0.321734-0.65194 0.508001-0.39793 0.1778-0.9906 0.1778zm0-0.719667q0.6604 0 0.97367-0.431801 0.32173-0.440266 0.3302-1.1938 0.0169-0.245533 0.0169-0.474134 0-0.237066 0-0.465666 0-0.237067-0.0169-0.465667-8e-3 -0.736601-0.3302-1.17687-0.31327-0.448734-0.97367-0.448734-0.65193 0-0.97366 0.448734-0.31327 0.440266-0.3302 1.17687 0 0.2286-8e-3 0.465667 0 0.2286 0 0.465666 8e-3 0.228601 8e-3 0.474134 0.0169 0.753534 0.33866 1.1938 0.32174 0.431801 0.9652 0.431801zm5.02921 0.635q-0.0847 0-0.14394-0.0508-0.0508-0.05927-0.0508-0.143933v-4.74134l-1.40546 1.08373q-0.0677 0.0508-0.14394 0.04233-0.0762-0.0085-0.127-0.0762l-0.22013-0.2794q-0.0508-0.0762-0.0423-0.1524 0.0169-0.0762 0.0847-0.127l1.84574-1.4224q0.0593-0.04233 0.11006-0.0508 0.0508-0.0085 0.11007-0.0085h0.4318q0.0847 0 0.13547 0.05927 0.0508 0.0508 0.0508 0.135466v5.5372q0 0.08467-0.0508 0.143933-0.0508 0.0508-0.13547 0.0508z"/><path d="m110.605 52.1648q-0.0931 0-0.14394-0.0508-0.0508-0.05927-0.0508-0.143933v-5.52874q0-0.09313 0.0508-0.143934 0.0508-0.05927 0.14394-0.05927h2.15053q0.62654 0 1.08374 0.203201 0.46566 0.2032 0.71966 0.6096 0.254 0.397933 0.254 0.999067 0 0.601133-0.254 0.999067-0.254 0.397933-0.71966 0.601133-0.4572 0.203201-1.08374 0.203201h-1.4986v2.11667q0 0.08467-0.0593 0.143933-0.0508 0.0508-0.14394 0.0508zm0.64347-3.0226h1.46473q0.62653 0 0.9398-0.2794t0.31327-0.8128q0-0.524934-0.3048-0.8128-0.3048-0.287867-0.94827-0.287867h-1.46473zm4.79213 3.0226q-0.0931 0-0.14393-0.0508-0.0508-0.05927-0.0508-0.143933v-5.5372q0-0.08467 0.0508-0.135467 0.0508-0.05927 0.14393-0.05927h0.44874q0.0847 0 0.13546 0.05927 0.0593 0.0508 0.0593 0.135467v5.5372q0 0.08467-0.0593 0.143933-0.0508 0.0508-0.13546 0.0508z"/><path d="m110.152 62.0708q-0.0762 0-0.127-0.0508-0.0423-0.05927-0.0423-0.135467 0-0.0254 0.0169-0.0762l2.1082-4.9276h-2.77706q-0.0847 0-0.14394-0.0508-0.0508-0.05927-0.0508-0.143933v-0.338667q0-0.09313 0.0508-0.143933 0.0593-0.05927 0.14394-0.05927h3.47133q0.0931 0 0.14393 0.05927 0.0593 0.0508 0.0593 0.143933v0.313267q0 0.110067-0.0169 0.1778-0.0169 0.06773-0.0508 0.1524l-2.09127 4.86834q-0.0254 0.06773-0.0847 0.143934-0.0508 0.06773-0.1524 0.06773zm3.69148 0q-0.0847 0-0.14394-0.0508-0.0508-0.05927-0.0508-0.143933v-0.270934q0-0.0762 0.0423-0.169333 0.0423-0.09313 0.16933-0.2032l1.79493-1.79493q0.4318-0.364067 0.67734-0.618067 0.254-0.262467 0.3556-0.499534 0.11006-0.237067 0.11006-0.491067 0-0.4826-0.27093-0.762-0.27093-0.287867-0.80433-0.287867-0.33867 0-0.5842 0.143934-0.24554 0.135466-0.38947 0.381-0.13547 0.237067-0.1778 0.541867-0.0169 0.110066-0.0931 0.1524-0.0677 0.04233-0.127 0.04233h-0.44027q-0.0762 0-0.127-0.04233-0.0508-0.0508-0.0508-0.118534 8e-3 -0.321733 0.13547-0.643467 0.127-0.3302 0.37253-0.592666 0.254-0.262467 0.61807-0.423334 0.37253-0.169333 0.8636-0.169333 0.66886 0 1.0922 0.245533 0.4318 0.237067 0.635 0.635 0.2032 0.397934 0.2032 0.872067 0 0.372534-0.127 0.685801-0.127 0.3048-0.37254 0.601133-0.23706 0.287867-0.59266 0.592667l-1.6256 1.651h2.6416q0.0931 0 0.14393 0.0508 0.0593 0.0508 0.0593 0.143933v0.347134q0 0.08467-0.0593 0.143933-0.0508 0.0508-0.14393 0.0508z"/></g><rect x="56.0452" y="69.6355" width="52.1411" height="8.94329" ry="4.47165" fill="#a5b7d2" stroke-width="0" style="paint-order:markers stroke fill"/><g transform="matrix(.264583 0 0 .264583 67.5761 70.0745)"><path d="m7.558 0.2569c-0.06528-0.02129-0.1135 0.0065-0.1406 0.08984-0.5481 1.687 6.27 15.03 5.838 16.75-0.3418 1.36-13.24 6.977-11.91 7.41 1.687 0.5481 15.03-6.27 16.75-5.838 1.36 0.3418 6.979 13.24 7.412 11.91 0.5481-1.687-6.27-15.03-5.838-16.75 0.3418-1.36 13.24-6.979 11.91-7.412-1.687-0.5481-15.03 6.27-16.75 5.838-1.275-0.3205-6.292-11.68-7.271-12z" fill="#f15458"/><path d="m19.67 13.83c0.3418-1.36 13.24-6.979 11.91-7.412-1.687-0.5481-15.03 6.27-16.75 5.838z" fill="#1d1d1d"/><path d="m35.58 23.23q-0.2475 0-0.4208-0.1733t-0.1733-0.4208v-16.11q0-0.2723 0.1733-0.4455t0.4208-0.1733h6.634q1.931 0 3.366 0.6188 1.436 0.594 2.228 1.832 0.7921 1.213 0.7921 3.044 0 1.856-0.7921 3.069-0.7921 1.188-2.228 1.782t-3.366 0.594h-3.688v5.792q0 0.2475-0.1733 0.4208-0.1485 0.1733-0.4208 0.1733zm2.896-9.133h3.614q1.436 0 2.203-0.6683 0.7673-0.6931 0.7673-2.03 0-1.238-0.7178-1.98-0.7178-0.7673-2.252-0.7673h-3.614zm13.14 9.133q-0.2475 0-0.4208-0.1733t-0.1733-0.4208v-16.39q0-0.2475 0.1733-0.4208t0.4208-0.1733h2.054q0.2475 0 0.4208 0.1733t0.1733 0.4208v16.39q0 0.2475-0.1733 0.4208t-0.4208 0.1733zm9.678 0.2475q-1.287 0-2.327-0.495-1.04-0.5198-1.658-1.361-0.594-0.8663-0.594-1.931 0-1.733 1.386-2.747 1.411-1.04 3.713-1.386l3.391-0.495v-0.5198q0-1.04-0.5198-1.609-0.5198-0.5693-1.782-0.5693-0.8911 0-1.46 0.3713-0.5445 0.3465-0.8168 0.9406-0.198 0.3218-0.5693 0.3218h-1.955q-0.2723 0-0.4208-0.1485-0.1238-0.1485-0.1238-0.396 0.02475-0.396 0.3218-0.9653 0.297-0.5693 0.9406-1.089 0.6436-0.5445 1.658-0.9158 1.015-0.3713 2.45-0.3713 1.559 0 2.624 0.396 1.089 0.3713 1.733 1.015 0.6435 0.6436 0.9406 1.51t0.297 1.832v7.772q0 0.2475-0.1733 0.4208t-0.4208 0.1733h-2.005q-0.2723 0-0.4455-0.1733-0.1485-0.1733-0.1485-0.4208v-0.9653q-0.3218 0.4703-0.8663 0.8911-0.5445 0.396-1.337 0.6683-0.7673 0.2475-1.832 0.2475zm0.8416-2.351q0.8663 0 1.559-0.3713 0.7178-0.3713 1.114-1.139 0.4208-0.7921 0.4208-1.98v-0.5198l-2.475 0.396q-1.46 0.2228-2.178 0.7178t-0.7178 1.213q0 0.5445 0.3218 0.9406 0.3465 0.3713 0.8663 0.5693 0.5198 0.1733 1.089 0.1733zm10.15 2.104q-0.2475 0-0.4208-0.1733t-0.1733-0.4208v-11.68q0-0.2475 0.1733-0.4208t0.4208-0.1733h2.03q0.2475 0 0.4208 0.1733t0.1733 0.4208v1.015q0.6435-0.7921 1.634-1.312 1.015-0.5445 2.5-0.5445 1.51 0 2.624 0.6931 1.114 0.6683 1.708 1.906 0.6188 1.238 0.6188 2.97v6.955q0 0.2475-0.1733 0.4208t-0.4208 0.1733h-2.178q-0.2475 0-0.4208-0.1733t-0.1733-0.4208v-6.807q0-1.436-0.7178-2.252-0.6931-0.8168-2.03-0.8168-1.287 0-2.054 0.8168-0.7673 0.8168-0.7673 2.252v6.807q0 0.2475-0.1733 0.4208t-0.4208 0.1733zm20.51 0q-1.485 0-2.5-0.5198t-1.51-1.535q-0.495-1.04-0.495-2.574v-5.619h-1.955q-0.2475 0-0.4208-0.1733t-0.1733-0.4208v-1.436q0-0.2475 0.1733-0.4208t0.4208-0.1733h1.955v-4.109q0-0.2475 0.1485-0.4208 0.1733-0.1733 0.4455-0.1733h2.005q0.2475 0 0.4208 0.1733t0.1733 0.4208v4.109h3.094q0.2475 0 0.4208 0.1733t0.1733 0.4208v1.436q0 0.2475-0.1733 0.4208t-0.4208 0.1733h-3.094v5.371q0 1.015 0.3465 1.584 0.3713 0.5693 1.262 0.5693h1.708q0.2475 0 0.4208 0.1733t0.1733 0.4208v1.535q0 0.2475-0.1733 0.4208t-0.4208 0.1733zm5.693 0q-0.2475 0-0.4208-0.1733t-0.1733-0.4208v-16.11q0-0.2723 0.1733-0.4455 0.1733-0.1733 0.4208-0.1733h10.74q0.2723 0 0.4455 0.1733t0.1733 0.4455v1.733q0 0.2723-0.1733 0.4455-0.1733 0.1485-0.4455 0.1485h-7.945v4.703h7.45q0.2723 0 0.4455 0.1733t0.1733 0.4455v1.733q0 0.2475-0.1733 0.4208t-0.4455 0.1733h-7.45v6.138q0 0.2475-0.1733 0.4208t-0.4455 0.1733zm20.84 0.2475q-2.302 0-3.911-0.7921-1.584-0.8168-2.426-2.302-0.8416-1.51-0.9406-3.614-0.0247-1.015-0.0247-2.178t0.0247-2.228q0.099-2.079 0.9406-3.589 0.8663-1.51 2.45-2.302 1.609-0.8168 3.886-0.8168 1.683 0 3.02 0.4455t2.277 1.238q0.9406 0.7673 1.46 1.807 0.5198 1.04 0.5445 2.252 0.0248 0.2228-0.1485 0.3713-0.1485 0.1485-0.3713 0.1485h-2.351q-0.2723 0-0.4455-0.1238-0.1733-0.1485-0.2475-0.4703-0.396-1.634-1.361-2.228-0.9653-0.594-2.401-0.594-1.658 0-2.648 0.9406-0.9901 0.9158-1.064 3.044-0.0742 2.03 0 4.158 0.0743 2.129 1.064 3.069 0.9901 0.9158 2.648 0.9158 1.436 0 2.401-0.594 0.9653-0.6188 1.361-2.228 0.0742-0.3465 0.2475-0.4703t0.4455-0.1238h2.351q0.2228 0 0.3713 0.1485 0.1733 0.1485 0.1485 0.3713-0.0247 1.213-0.5445 2.252-0.5198 1.04-1.46 1.832-0.9406 0.7673-2.277 1.213-1.337 0.4455-3.02 0.4455zm10.84-0.2475q-0.2475 0-0.4208-0.1733t-0.1733-0.4208v-16.11q0-0.2723 0.1733-0.4455 0.1733-0.1733 0.4208-0.1733h10.89q0.2723 0 0.4455 0.1733t0.1733 0.4455v1.634q0 0.2475-0.1733 0.4208t-0.4455 0.1733h-8.143v4.381h7.599q0.2723 0 0.4455 0.1733 0.1733 0.1485 0.1733 0.4208v1.535q0 0.2723-0.1733 0.4455-0.1733 0.1485-0.4455 0.1485h-7.599v4.53h8.341q0.2723 0 0.4455 0.1733 0.1733 0.1733 0.1733 0.4455v1.634q0 0.2475-0.1733 0.4208t-0.4455 0.1733z" fill="#016ec7" stroke-width="2.631" aria-label="PlantFCE"/></g><path d="m61.5636 75.9601q-0.34925 0-0.582083-0.122238-0.232834-0.128058-0.372533-0.314324v0.244474q0 0.05821-0.04075 0.09895-0.03493 0.03493-0.09313 0.03493h-0.267758q-0.05821 0-0.09895-0.03493-0.03493-0.04075-0.03493-0.09895v-3.86503q0-0.05821 0.03493-0.09313 0.04075-0.04075 0.09895-0.04075h0.2794q0.06403 0 0.09895 0.04075 0.03493 0.03493 0.03493 0.09313v1.33879q0.145521-0.180446 0.372533-0.302683 0.232833-0.122237 0.570442-0.122237 0.325966 0 0.552978 0.116416 0.232834 0.110596 0.378354 0.308504 0.151342 0.197908 0.227013 0.448204 0.07567 0.250296 0.08149 0.523875 0.0058 0.09313 0.0058 0.174625 0 0.08149-0.0058 0.174625-0.0058 0.279399-0.08149 0.529695-0.07567 0.250296-0.227013 0.448204-0.14552 0.192087-0.378354 0.308504-0.227012 0.110596-0.552979 0.110596zm-0.122238-0.471487q0.302683 0 0.471487-0.128059 0.174625-0.133879 0.250296-0.343429 0.07567-0.21537 0.08731-0.459845 0.0058-0.168804 0-0.337608-0.01164-0.244475-0.08731-0.454025-0.07567-0.215371-0.250296-0.343429-0.168804-0.133879-0.471487-0.133879-0.273579 0-0.454025 0.128058-0.180445 0.128058-0.273579 0.325967-0.08731 0.197908-0.09313 0.401637-0.0058 0.09313-0.0058 0.227012 0 0.128058 0.0058 0.221192 0.01164 0.21537 0.09313 0.42492 0.08731 0.203729 0.261938 0.337608 0.180446 0.13388 0.465666 0.13388zm2.50442 1.51924q-0.04657 0-0.08149-0.03493-0.03493-0.03493-0.03493-0.08149 0-0.02328 0.0058-0.04657 0.0058-0.02328 0.02328-0.05821l0.448203-1.06521-1.11178-2.6252q-0.0291-0.06985-0.0291-0.09895 0-0.05239 0.03493-0.08731 0.03493-0.03493 0.08731-0.03493h0.285221q0.05821 0 0.09313 0.0291 0.03493 0.0291 0.04657 0.06985l0.884766 2.11878 0.908049-2.11878q0.01746-0.04075 0.04657-0.06985 0.03492-0.0291 0.09895-0.0291h0.273579q0.05239 0 0.08731 0.03493 0.03493 0.03493 0.03493 0.08149 0 0.0291-0.02911 0.104774l-1.65312 3.81264q-0.01746 0.04075-0.05239 0.06985-0.0291 0.0291-0.09313 0.0291z" stroke-width="0" style="paint-order:markers stroke fill" aria-label="by"/></g></svg>
